<?xml version="1.0" encoding="UTF-8" standalone="no"?>
<svg width="40px" height="40px" viewBox="0 0 40 40" version="1.1" xmlns="http://www.w3.org/2000/svg" xmlns:xlink="http://www.w3.org/1999/xlink">
    <!-- Generator: sketchtool 41.2 (35397) - http://www.bohemiancoding.com/sketch -->
    <title>9D61695B-12CA-4BF1-AECF-9191CD8F6875</title>
    <desc>Created with sketchtool.</desc>
    <defs>
        <polygon id="path-1" points="140.184897 19.3625825 140.184897 0.314402005 0.330490162 0.314402005 0.330490162 19.3625825"></polygon>
        <polygon id="path-3" points="39.0210117 0.112280702 0.000139757067 0.112280702 0.000139757067 39.2981053 39.0210117 39.2981053 39.0210117 0.112280702"></polygon>
    </defs>
    <g id="Symbols" stroke="none" stroke-width="1" fill="none" fill-rule="evenodd">
        <g id="hm-logo">
            <g id="Herman-Miller-Logo">
                <g id="HMLogo">

                    <g id="Group-6">
                        <mask id="mask-4" fill="white">
                            <use xlink:href="#path-3"></use>
                        </mask>
                        <g id="Clip-5"></g>
                        <path d="M39.0210117,19.7310877 C39.0210117,25.130386 37.1168216,29.738807 33.3084416,33.5633684 C29.5028566,37.3858246 24.911837,39.2981053 19.5360814,39.2981053 C14.1624222,39.2981053 9.56231829,37.3858246 5.73646858,33.5633684 C1.91341401,29.738807 0.000139757067,25.130386 0.000139757067,19.7310877 C0.000139757067,14.3324912 1.91341401,9.71424561 5.73646858,5.87284211 C9.56231829,2.03214035 14.1624222,0.112140351 19.5360814,0.112140351 C24.911837,0.112140351 29.5028566,2.03214035 33.3084416,5.87284211 C37.1168216,9.71424561 39.0210117,14.3324912 39.0210117,19.7310877 M30.3882177,30.0075789 L30.3882177,9.50582456 L30.0276444,9.50582456 C29.5783254,13.0356491 28.8739498,16.0461754 28.0130463,18.538807 C26.0131227,24.5928421 23.1879336,27.6195088 19.5360814,27.6195088 C15.8842292,27.6195088 13.0415705,24.5928421 11.0081052,18.538807 C10.1472016,16.0461754 9.49243976,13.0356491 9.04451836,9.50582456 L8.68254755,9.50582456 L8.68254755,30.0075789 C11.9556581,29.0384561 15.5753661,28.5542456 19.5360814,28.5542456 C23.4639538,28.5542456 27.0822642,29.0384561 30.3882177,30.0075789" id="Fill-4" fill="#acacac" mask="url(#mask-4)"></path>
                    </g>
                </g>
            </g>
        </g>
    </g>
</svg>
